# xmcd
#
# Track frame offsets:
#	150
#	13008
#	25900
#	40308
#	59600
#	69584
#	89186
#	113097
#	128240
#	140641
#	153066
#	169548
#
# Disc length: 2613 seconds
#
# Revision: 0
# Processed by: cddbd v1.5.2PL0 Copyright (c) Steve Scherf et al.
# Submitted via: audiograbber 1.83.01
#
DISCID=a40a330c
DTITLE=The Greatest Country Music Recordings Of All Time - Record 48
DYEAR=1900
DGENRE=
TTITLE0=Waylon Jennings - Don't You Think This Outlaw Bit's Done Got Out Of Han
TTITLE0=d
TTITLE1=Waylon Jennings - Are You Sure Hank Done It This Way
TTITLE2=Waylon Jennings - Luckenback, Texas
TTITLE3=Lost Gonzo Band - London Homesick Blues
TTITLE4=Jessi Colter - I'm Looking For Blue Eyes
TTITLE5=Jerry Jeff Walker - Up Against The Wall, Redneck Mother
TTITLE6=David Allen Coe - You Never Even Called Me By My Name
TTITLE7=David Allen Coe - Longhaired Redneck
TTITLE8=Hank Williams Jr. - The Last Love Song
TTITLE9=Hank Williams Jr. - Stoned At The Jukebox
TTITLE10=Hank Williams Jr - Living Proof
TTITLE11=David Allen Coe - Castles In The Sand
EXTD=
EXTT0=
EXTT1=
EXTT2=
EXTT3=
EXTT4=
EXTT5=
EXTT6=
EXTT7=
EXTT8=
EXTT9=
EXTT10=
EXTT11=
PLAYORDER=
